<svg xmlns="http://www.w3.org/2000/svg" width="1em" height="1em" viewBox="0 0 24 24"><title xmlns="">file-css</title><g fill="none"><path fill="#ffbc44" d="M21.087 6.71v15.334a.956.956 0 0 1-.957.956H3.87a.957.957 0 0 1-.957-.956V1.957A.957.957 0 0 1 3.87 1h11.507a5 5 0 0 1 .927.086v3.74a.956.956 0 0 0 .957.957H21q.086.46.086.927"/><path fill="#ffdda1" d="M16.64 5.553L2.912 19.289V1.957A.957.957 0 0 1 3.87 1h11.507a5 5 0 0 1 .927.086v3.74a.98.98 0 0 0 .335.727"/><path fill="#e3e3e3" d="M21.001 5.783h-3.74a.956.956 0 0 1-.956-.957v-3.74A5.67 5.67 0 0 1 21 5.783"/><path stroke="#191919" stroke-linecap="round" stroke-linejoin="round" d="M20.13 23a.956.956 0 0 0 .957-.957V6.718A5.714 5.714 0 0 0 15.372 1H3.87a.957.957 0 0 0-.957.957v20.087A.956.956 0 0 0 3.87 23z"/><path stroke="#191919" stroke-linecap="round" stroke-linejoin="round" d="M8.652 18.217a2.87 2.87 0 0 1 0-5.739m4.783 0H11.81a1.244 1.244 0 0 0-.691 2.283l1.76 1.173a1.244 1.244 0 0 1-.686 2.283h-1.626m7.651-5.739H16.59a1.244 1.244 0 0 0-.691 2.283l1.76 1.173a1.243 1.243 0 0 1-.686 2.283h-1.626m4.066-15.539a5.7 5.7 0 0 0-3.108-1.598v3.746a.956.956 0 0 0 .956.957h3.75a5.72 5.72 0 0 0-1.598-3.105"/></g></svg>