<svg xmlns="http://www.w3.org/2000/svg" width="1em" height="1em" viewBox="0 0 128 128"><title xmlns="">typeorm-wordmark</title><path fill="#2a004e" d="M23.248 52.56a.664.664 0 0 1 .942 0l10.917 10.961a.67.67 0 0 1 0 .946L24.189 75.428a.664.664 0 0 1-.941 0L12.33 64.468a.67.67 0 0 1 0-.946z"/><path fill="#f14a00" d="M8.134 64.47a.667.667 0 0 1 0-.94l9.135-9.172c.307-.308.241-.824-.147-1.018a11.7 11.7 0 0 0-5.264-1.248C5.31 52.092 0 57.424 0 64s5.31 11.908 11.86 11.908c1.892 0 3.677-.454 5.263-1.248c.388-.195.454-.71.147-1.018z"/><path d="M47.78 70.335q-.257 0-.257-.256V58.936h-3.415q-.256 0-.256-.256v-2.07q0-.257.256-.257h9.777q.255 0 .256.256v2.07q0 .257-.256.257H50.49v11.143q0 .256-.278.256zm9.262 3.95q-.15 0-.214-.107a.23.23 0 0 1 0-.192l1.303-3.693l-3.65-10.204q-.107-.32.213-.32h2.561q.256 0 .3.234l1.195 3.928q.192.662.362 1.43q.193.769.342 1.538h.064q.171-.77.342-1.516l.363-1.452l1.216-3.928q.043-.234.3-.234h2.518q.32 0 .214.32L59.625 74.07q-.086.214-.299.214zm14.346-3.715q-.663 0-1.495-.192a5.3 5.3 0 0 1-1.43-.534l-.043-2.198q.512.277 1.046.427q.534.128.982.128q.812 0 1.196-.491q.384-.513.384-1.495v-2.583q0-.81-.277-1.195q-.279-.406-.94-.406q-.576 0-1.174.363a6.7 6.7 0 0 0-1.238 1.004l-.235-1.858q.555-.555 1.132-1.003a5.4 5.4 0 0 1 1.238-.726a3.9 3.9 0 0 1 1.494-.277q1.452 0 2.156.854q.726.853.726 2.668v3.373q0 2.135-.897 3.138q-.896 1.003-2.625 1.003m-5.21 3.715q-.255 0-.255-.256V62.416q0-.62-.043-1.217a26 26 0 0 0-.064-1.132q-.042-.298.256-.298h2.05q.234 0 .277.234l.107.79q.064.449.064.79l.235 1.132v11.314q0 .255-.257.256zM81.39 70.57q-2.37 0-3.501-1.024c-1.131-1.024-1.131-1.708-1.131-3.074v-2.605q0-2.113 1.13-3.223q1.154-1.11 3.438-1.11t3.437 1.067q1.174 1.068 1.174 3.16v1.686q0 .255-.278.256h-6.062v.811q0 .94.405 1.41q.427.447 1.367.448q.747 0 1.152-.257a.9.9 0 0 0 .406-.79q0-.234.277-.234h2.263q.235 0 .256.235q.022 1.621-1.067 2.433q-1.067.81-3.266.811m-1.793-6.575h3.5v-.277q0-1.024-.426-1.494q-.406-.47-1.302-.47q-.918 0-1.345.47q-.427.469-.427 1.494zm13.912 6.575q-2.775 0-4.206-1.345q-1.409-1.365-1.409-3.949v-3.842q0-2.605 1.41-3.95q1.43-1.365 4.205-1.366q2.754 0 4.162 1.366q1.43 1.345 1.43 3.95v3.842q0 2.583-1.43 3.95q-1.408 1.344-4.162 1.344m0-2.604q1.323 0 1.985-.726q.662-.725.662-2.156v-3.48q0-1.45-.662-2.156q-.662-.725-1.985-.725q-1.324 0-1.986.725q-.66.705-.661 2.156v3.48q0 1.43.661 2.156q.662.726 1.986.726m8.282 2.37q-.278 0-.278-.257V56.61q0-.255.278-.256h4.482q2.754 0 4.014 1.089t1.26 3.223q0 1.452-.599 2.455q-.597 1.004-1.878 1.388l-.021.042l3.223 5.465q.085.129.021.235q-.042.085-.192.085h-2.754a.34.34 0 0 1-.299-.17l-2.903-5.209h-1.665v5.123q0 .256-.256.256zm2.69-7.707h1.75q1.217 0 1.772-.448q.576-.47.576-1.452q0-.981-.534-1.409q-.534-.448-1.729-.448h-1.836zm9.666 7.706q-.278 0-.278-.256l.278-13.47q0-.256.256-.256h2.946q.213 0 .299.192l3.287 7.386l3.266-7.386a.3.3 0 0 1 .299-.192h2.967q.235 0 .235.256l.299 13.47q0 .256-.256.256h-2.391q-.278 0-.278-.256l-.106-5.849a40 40 0 0 1 0-1.836q.043-.918.085-1.75h-.064a48 48 0 0 1-.704 1.644a43 43 0 0 1-.748 1.622l-2.262 4.782q-.086.17-.3.17h-.106a.29.29 0 0 1-.277-.17l-2.285-4.803a34 34 0 0 1-.747-1.601a65 65 0 0 0-.683-1.644h-.064q.043.832.085 1.75t.022 1.815l-.128 5.87q0 .256-.278.256z"/></svg>